<?xml version="1.0" encoding="utf-8"?>
<!-- Generator: Adobe Illustrator 24.0.1, SVG Export Plug-In . SVG Version: 6.00 Build 0)  -->
<svg version="1.1" id="Layer_1" xmlns="http://www.w3.org/2000/svg" xmlns:xlink="http://www.w3.org/1999/xlink" x="0px" y="0px"
	 viewBox="0 0 100 125" style="enable-background:new 0 0 100 125;" xml:space="preserve">
<g>
	<g>
		<path d="M55.8,45.1l-2.6,0l0-2.6l2.6,0L55.8,45.1z M51.9,45.2l-2.6,0l0-2.6l2.6,0L51.9,45.2z M48.1,45.3l-2.6,0l0-2.6l2.6,0
			L48.1,45.3z M44.2,45.3l-2.6,0l0-2.6l2.6,0L44.2,45.3z M40.4,45.4l-2.6,0l0-2.6l2.6,0L40.4,45.4z"/>
		<path d="M59.6,41.2l-2.6,0l0-2.6l2.6,0L59.6,41.2z M55.7,41.3l-2.6,0l0-2.6l2.6,0L55.7,41.3z M51.9,41.4l-2.6,0l0-2.6l2.6,0
			L51.9,41.4z M48,41.4l-2.6,0l0-2.6l2.6,0L48,41.4z M44.2,41.5l-2.6,0l0-2.6l2.6,0L44.2,41.5z M40.3,41.6l-2.6,0l0-2.6l2.6,0
			L40.3,41.6z M36.5,41.6l-2.6,0l0-2.6l2.6,0L36.5,41.6z"/>
		<path d="M63.3,37.3l-2.6,0l0-2.6l2.6,0L63.3,37.3z M59.5,37.4l-2.6,0l0-2.6l2.6,0L59.5,37.4z M55.6,37.4l-2.6,0l0-2.6l2.6,0
			L55.6,37.4z M51.8,37.5l-2.6,0l0-2.6l2.6,0L51.8,37.5z M47.9,37.6l-2.6,0l0-2.6l2.6,0L47.9,37.6z M44.1,37.6l-2.6,0l0-2.6l2.6,0
			L44.1,37.6z M40.2,37.7l-2.6,0l0-2.6l2.6,0L40.2,37.7z M36.4,37.8l-2.6,0l0-2.6l2.6,0L36.4,37.8z M32.5,37.9l-2.6,0l0-2.6l2.6,0
			L32.5,37.9z"/>
		<path d="M63.3,33.4l-2.6,0l0-2.6l2.6,0L63.3,33.4z M59.4,33.5l-2.6,0l0-2.6l2.6,0L59.4,33.5z M55.6,33.6l-2.6,0l0-2.6l2.6,0
			L55.6,33.6z M51.7,33.7l-2.6,0l0-2.6l2.6,0L51.7,33.7z M47.9,33.7l-2.6,0l0-2.6l2.6,0L47.9,33.7z M44,33.8l-2.6,0l0-2.6l2.6,0
			L44,33.8z M40.2,33.9l-2.6,0l0-2.6l2.6,0L40.2,33.9z M36.3,33.9l-2.6,0l0-2.6l2.6,0L36.3,33.9z M32.5,34l-2.6,0l0-2.6l2.6,0
			L32.5,34z"/>
		<path d="M63.2,29.6l-2.6,0l0-2.6l2.6,0L63.2,29.6z M59.3,29.7l-2.6,0l0-2.6l2.6,0L59.3,29.7z M55.5,29.7l-2.6,0l0-2.6l2.6,0
			L55.5,29.7z M51.6,29.8l-2.6,0l0-2.6l2.6,0L51.6,29.8z M47.8,29.9l-2.6,0l0-2.6l2.6,0L47.8,29.9z M44,30l-2.6,0l0-2.6l2.6,0L44,30
			z M40.1,30l-2.6,0l0-2.6l2.6,0L40.1,30z M36.3,30.1l-2.6,0l0-2.6l2.6,0L36.3,30.1z M32.4,30.2l-2.6,0l0-2.6l2.6,0L32.4,30.2z"/>
		<path d="M63.1,25.7l-2.6,0l0-2.6l2.6,0L63.1,25.7z M59.3,25.8l-2.6,0l0-2.6l2.6,0L59.3,25.8z M55.4,25.9l-2.6,0l0-2.6l2.6,0
			L55.4,25.9z M51.6,26L49,26l0-2.6l2.6,0L51.6,26z M47.7,26l-2.6,0l0-2.6l2.6,0L47.7,26z M43.9,26.1l-2.6,0l0-2.6l2.6,0L43.9,26.1z
			 M40,26.2l-2.6,0l0-2.6l2.6,0L40,26.2z M36.2,26.2l-2.6,0l0-2.6l2.6,0L36.2,26.2z M32.3,26.3l-2.6,0l0-2.6l2.6,0L32.3,26.3z"/>
		<path d="M63.1,21.9l-2.6,0l0-2.6l2.6,0L63.1,21.9z M59.2,22l-2.6,0l0-2.6l2.6,0L59.2,22z M55.4,22l-2.6,0l0-2.6l2.6,0L55.4,22z
			 M51.5,22.1l-2.6,0l0-2.6l2.6,0L51.5,22.1z M47.7,22.2l-2.6,0l0-2.6l2.6,0L47.7,22.2z M43.8,22.3l-2.6,0l0-2.6l2.6,0L43.8,22.3z
			 M40,22.3l-2.6,0l0-2.6l2.6,0L40,22.3z M36.1,22.4l-2.6,0l0-2.6l2.6,0L36.1,22.4z M32.3,22.5l-2.6,0l0-2.6l2.6,0L32.3,22.5z"/>
		<path d="M63,18.1l-2.6,0l0-2.6l2.6,0L63,18.1z M59.1,18.1l-2.6,0l0-2.6l2.6,0L59.1,18.1z M55.3,18.2l-2.6,0l0-2.6l2.6,0L55.3,18.2
			z M51.4,18.3l-2.6,0l0-2.6l2.6,0L51.4,18.3z M47.6,18.3l-2.6,0l0-2.6l2.6,0L47.6,18.3z M43.7,18.4l-2.6,0l0-2.6l2.6,0L43.7,18.4z
			 M39.9,18.5l-2.6,0l0-2.6l2.6,0L39.9,18.5z M36,18.5l-2.6,0l0-2.6l2.6,0L36,18.5z M32.2,18.6l-2.6,0l0-2.6l2.6,0L32.2,18.6z"/>
		<path d="M59.1,14.3l-2.6,0l0-2.6l2.6,0L59.1,14.3z M55.2,14.3l-2.6,0l0-2.6l2.6,0L55.2,14.3z M51.4,14.4l-2.6,0l0-2.6l2.6,0
			L51.4,14.4z M47.5,14.5l-2.6,0l0-2.6l2.6,0L47.5,14.5z M43.7,14.6l-2.6,0l0-2.6l2.6,0L43.7,14.6z M39.8,14.6l-2.6,0l0-2.6l2.6,0
			L39.8,14.6z M36,14.7l-2.6,0l0-2.6l2.6,0L36,14.7z"/>
	</g>
	<path d="M68.3,27.7c-0.2-12-10.2-21.6-22.2-21.4c-12,0.2-21.6,10.2-21.4,22.2c0.1,6.7,3.3,12.6,8.1,16.5c0,0.2-0.1,0.4-0.1,0.6
		l3.4,65.7c0,0.2,0,0.4,0.1,0.6c0.1,0.3,2.7,7,11.9,6.8c9.3-0.2,11.3-7,11.4-7.3c0-0.2,0.1-0.3,0.1-0.5l1-65.8c0-0.1,0-0.3,0-0.4
		C65.5,40.6,68.5,34.5,68.3,27.7z M28.6,28.4c-0.2-9.9,7.7-18.1,17.6-18.3c9.9-0.2,18.1,7.7,18.3,17.6c0.2,9.9-7.7,18.1-17.6,18.3
		C37,46.2,28.8,38.3,28.6,28.4z M55.9,110.5c-0.3,0.9-2.1,4.2-7.7,4.3c-5.6,0.1-7.7-3.2-8.1-4.1l-2.8-53.9c2.1,0.9,5.3,1.9,9.5,1.8
		c4.5-0.1,7.8-1.3,9.9-2.4L55.9,110.5z M56.8,47.6c-0.1,0.1-0.2,0.2-0.4,0.3c0,0-3.3,3.2-9.8,3.4c-6.1,0.1-9.3-2.5-9.9-2.9l0-0.8
		c3.1,1.5,6.5,2.4,10.2,2.3c3.6-0.1,6.9-1,9.9-2.6L56.8,47.6z"/>
</g>
</svg>
