<svg xmlns="http://www.w3.org/2000/svg" xmlns:xlink="http://www.w3.org/1999/xlink" version="1.1" x="0px" y="0px" viewBox="0 0 100 125" enable-background="new 0 0 100 100" xml:space="preserve"><g><g><path d="M67.359,45.275l-1.815-1.815l1.814-1.814l1.815,1.815L67.359,45.275z M64.637,42.553l-1.814-1.814l1.814-1.814    l1.814,1.814L64.637,42.553z M61.915,39.831L60.1,38.017l1.814-1.814l1.814,1.814L61.915,39.831z M59.193,37.109l-1.815-1.815    l1.814-1.814l1.815,1.815L59.193,37.109z M56.471,34.388l-1.814-1.814l1.814-1.814l1.814,1.814L56.471,34.388z"/><path d="M72.802,45.275l-1.814-1.814l1.814-1.814l1.814,1.814L72.802,45.275z M70.081,42.553l-1.815-1.815l1.814-1.814    l1.815,1.815L70.081,42.553z M67.359,39.831l-1.814-1.814l1.814-1.814l1.814,1.814L67.359,39.831z M64.637,37.109l-1.814-1.814    l1.814-1.814l1.814,1.814L64.637,37.109z M61.915,34.388l-1.815-1.815l1.814-1.814l1.815,1.815L61.915,34.388z M59.193,31.666    l-1.814-1.814l1.814-1.814l1.814,1.814L59.193,31.666z M56.472,28.944l-1.815-1.815l1.814-1.814l1.815,1.815L56.472,28.944z"/><path d="M78.246,45.275l-1.814-1.814l1.814-1.814l1.814,1.814L78.246,45.275z M75.524,42.553l-1.814-1.814l1.814-1.814    l1.814,1.814L75.524,42.553z M72.802,39.831l-1.815-1.815l1.814-1.814l1.815,1.815L72.802,39.831z M70.08,37.11l-1.814-1.814    l1.814-1.814l1.814,1.814L70.08,37.11z M67.359,34.388l-1.814-1.814l1.814-1.814l1.814,1.814L67.359,34.388z M64.637,31.666    l-1.815-1.815l1.814-1.814l1.815,1.815L64.637,31.666z M61.915,28.944l-1.814-1.814l1.814-1.814l1.814,1.814L61.915,28.944z     M59.194,26.223l-1.815-1.815l1.814-1.814l1.815,1.815L59.194,26.223z M56.472,23.501l-1.815-1.815l1.814-1.814l1.815,1.815    L56.472,23.501z"/><path d="M80.968,42.553l-1.814-1.814l1.814-1.814l1.814,1.814L80.968,42.553z M78.246,39.831l-1.814-1.814l1.814-1.814    l1.814,1.814L78.246,39.831z M75.524,37.11l-1.815-1.815l1.814-1.814l1.815,1.815L75.524,37.11z M72.802,34.388l-1.814-1.814    l1.814-1.814l1.814,1.814L72.802,34.388z M70.08,31.666l-1.814-1.814l1.814-1.814l1.814,1.814L70.08,31.666z M67.359,28.944    l-1.815-1.815l1.814-1.814l1.815,1.815L67.359,28.944z M64.637,26.222l-1.814-1.814l1.814-1.814l1.814,1.814L64.637,26.222z     M61.915,23.501l-1.815-1.815l1.814-1.814l1.815,1.815L61.915,23.501z M59.193,20.779l-1.815-1.815l1.814-1.814l1.815,1.815    L59.193,20.779z"/><path d="M83.689,39.831l-1.814-1.814l1.814-1.814l1.814,1.814L83.689,39.831z M80.967,37.109l-1.814-1.814l1.814-1.814    l1.814,1.814L80.967,37.109z M78.246,34.388l-1.815-1.815l1.814-1.814l1.815,1.815L78.246,34.388z M75.524,31.666l-1.814-1.814    l1.814-1.814l1.814,1.814L75.524,31.666z M72.802,28.944l-1.814-1.814l1.814-1.814l1.814,1.814L72.802,28.944z M70.081,26.223    l-1.815-1.815l1.814-1.814l1.815,1.815L70.081,26.223z M67.359,23.501l-1.814-1.814l1.814-1.814l1.814,1.814L67.359,23.501z     M64.637,20.779l-1.815-1.815l1.814-1.814l1.815,1.815L64.637,20.779z M61.915,18.057L60.1,16.242l1.814-1.814l1.815,1.815    L61.915,18.057z"/><path d="M86.411,37.109l-1.814-1.814l1.814-1.814l1.814,1.814L86.411,37.109z M83.689,34.388l-1.814-1.814l1.814-1.814    l1.814,1.814L83.689,34.388z M80.968,31.666l-1.815-1.815l1.814-1.814l1.815,1.815L80.968,31.666z M78.246,28.944l-1.814-1.814    l1.814-1.814l1.814,1.814L78.246,28.944z M75.524,26.222l-1.814-1.814l1.814-1.814l1.814,1.814L75.524,26.222z M72.802,23.501    l-1.815-1.815l1.814-1.814l1.815,1.815L72.802,23.501z M70.081,20.779l-1.814-1.814l1.814-1.814l1.814,1.814L70.081,20.779z     M67.359,18.057l-1.815-1.815l1.814-1.814l1.815,1.815L67.359,18.057z M64.637,15.335l-1.815-1.815l1.814-1.814l1.815,1.815    L64.637,15.335z"/><path d="M89.133,34.388l-1.814-1.814l1.814-1.814l1.814,1.814L89.133,34.388z M86.411,31.666l-1.814-1.814l1.814-1.814    l1.814,1.814L86.411,31.666z M83.689,28.944l-1.815-1.815l1.814-1.814l1.815,1.815L83.689,28.944z M80.968,26.222l-1.814-1.814    l1.814-1.814l1.814,1.814L80.968,26.222z M78.246,23.501l-1.814-1.814l1.814-1.814l1.814,1.814L78.246,23.501z M75.524,20.779    l-1.815-1.815l1.814-1.814l1.815,1.815L75.524,20.779z M72.802,18.057l-1.814-1.814l1.814-1.814l1.814,1.814L72.802,18.057z     M70.081,15.336l-1.815-1.815l1.814-1.814l1.815,1.815L70.081,15.336z M67.359,12.614l-1.815-1.815l1.814-1.814l1.815,1.815    L67.359,12.614z"/><path d="M91.855,31.666l-1.814-1.814l1.814-1.814l1.814,1.814L91.855,31.666z M89.133,28.944l-1.814-1.814l1.814-1.814    l1.814,1.814L89.133,28.944z M86.411,26.223l-1.815-1.815l1.814-1.814l1.815,1.815L86.411,26.223z M83.689,23.501l-1.814-1.814    l1.814-1.814l1.814,1.814L83.689,23.501z M80.967,20.779l-1.814-1.814l1.814-1.814l1.814,1.814L80.967,20.779z M78.246,18.057    l-1.815-1.815l1.814-1.814l1.815,1.815L78.246,18.057z M75.524,15.335l-1.814-1.814l1.814-1.814l1.814,1.814L75.524,15.335z     M72.802,12.614l-1.815-1.815l1.814-1.814l1.815,1.815L72.802,12.614z M70.081,9.892l-1.815-1.815l1.814-1.814l1.815,1.815    L70.081,9.892z"/><path d="M91.854,26.222l-1.814-1.814l1.814-1.814l1.814,1.814L91.854,26.222z M89.133,23.501l-1.815-1.815l1.814-1.814    l1.815,1.815L89.133,23.501z M86.411,20.779l-1.814-1.814l1.814-1.814l1.814,1.814L86.411,20.779z M83.689,18.057l-1.814-1.814    l1.814-1.814l1.814,1.814L83.689,18.057z M80.968,15.336l-1.815-1.815l1.814-1.814l1.815,1.815L80.968,15.336z M78.246,12.614    l-1.814-1.814l1.814-1.814l1.814,1.814L78.246,12.614z M75.524,9.892l-1.815-1.815l1.814-1.814l1.815,1.815L75.524,9.892z"/></g><path d="M88.629,42.219c8.494-8.494,8.494-22.316,0.001-30.809c-8.495-8.495-22.317-8.495-30.811-0.001   c-4.731,4.731-6.824,11.115-6.285,17.31c-0.159,0.093-0.31,0.2-0.442,0.341L6.151,77.124c-0.132,0.141-0.241,0.3-0.325,0.473   c-0.133,0.273-3.177,6.769,3.335,13.281c6.548,6.548,12.916,3.29,13.184,3.148c0.15-0.079,0.289-0.179,0.414-0.295L70.822,48.79   c0.1-0.094,0.187-0.196,0.263-0.305C77.353,49.098,83.838,47.01,88.629,42.219z M60.541,14.131   c6.993-6.993,18.373-6.993,25.367,0.001c6.993,6.993,6.993,18.372-0.001,25.366c-6.994,6.994-18.373,6.995-25.366,0.001   C53.547,32.504,53.547,21.125,60.541,14.131z M20.356,90.709c-0.849,0.344-4.469,1.452-8.474-2.552   c-3.985-3.985-3.014-7.726-2.681-8.66L46.04,40.1c0.782,2.172,2.309,5.126,5.316,8.132c3.213,3.213,6.372,4.744,8.574,5.473   L20.356,90.709z M66.28,47.768c-0.147-0.035-0.298-0.059-0.455-0.059c-0.045,0-4.628-0.123-9.226-4.72   c-4.283-4.283-4.678-8.438-4.715-9.14l0.54-0.578c1.011,3.276,2.806,6.361,5.395,8.949c2.525,2.525,5.522,4.293,8.708,5.316   L66.28,47.768z"/></g><text x="0" y="115" fill="#000000" font-size="5px" font-weight="bold" font-family="'Helvetica Neue', Helvetica, Arial-Unicode, Arial, Sans-serif">Created by Eugen Belyakoff</text><text x="0" y="120" fill="#000000" font-size="5px" font-weight="bold" font-family="'Helvetica Neue', Helvetica, Arial-Unicode, Arial, Sans-serif">from the Noun Project</text></svg>